<svg xmlns="http://www.w3.org/2000/svg"  viewBox="0 0 40 40" width="30px" height="30px"><path fill="#ffeea3" d="M6.5,38.5V24.071C6.5,16.715,12.683,10.5,20,10.5s13.5,6.215,13.5,13.571V38.5H6.5z"/><path fill="#ba9b48" d="M20,11c7.047,0,13,5.986,13,13.071V38H7V24.071C7,16.986,12.953,11,20,11 M20,10 c-7.732,0-14,6.576-14,14.071V39h28V24.071C34,16.576,27.732,10,20,10L20,10z"/><path fill="#ff92be" d="M20,34.464c-5.238,0-9.5-4.046-9.5-9.02V21c0-5.021,3.267-19.536,9.5-19.536 c6.131,0,9.5,14.673,9.5,19.536v4.444C29.5,30.418,25.238,34.464,20,34.464z"/><path fill="#ea4c89" d="M20,1.964c5.413,0,9,13.546,9,19.036v4.444c0,4.698-4.037,8.52-9,8.52s-9-3.822-9-8.52V21 C11,15.349,14.493,1.964,20,1.964 M20,0.964c-6.674,0-10,14.778-10,20.036v4.444c0,5.258,4.477,9.52,10,9.52s10-4.262,10-9.52V21 C30,15.742,26.562,0.964,20,0.964L20,0.964z"/><path fill="#ffeea3" d="M7 37H33V39H7z"/><path fill="#ffb5d2" d="M24,33.065c2.958-1.397,5-4.284,5-7.621V21c0-3.986-1.892-12.215-5-16.426V33.065z"/></svg>