<svg xmlns="http://www.w3.org/2000/svg"  viewBox="0 0 64 64" width="64px" height="64px"><path fill="#FAB400" d="M48,4H16c-2.206,0-4,1.794-4,4v22c0,2.206,1.794,4,4,4h0.5l2.7,3.6c0.188,0.252,0.485,0.4,0.8,0.4 s0.611-0.148,0.8-0.4l2.7-3.6H48c2.206,0,4-1.794,4-4V8C52,5.794,50.206,4,48,4z"/><path fill="#DC9600" d="M48,17c0-3.314-2.686-6-6-6c-1.537,0-2.938,0.578-4,1.528C36.938,11.578,35.537,11,34,11 c-0.702,0-1.374,0.127-2,0.349C31.374,11.127,30.702,11,30,11c-1.537,0-2.938,0.578-4,1.528C24.938,11.578,23.537,11,22,11 c-3.314,0-6,2.686-6,6c0,1.667,0.68,3.175,1.778,4.263h0l7.519,7.448h0C25.477,28.889,25.726,29,26,29s0.523-0.111,0.704-0.29h0 L32,23.464l5.296,5.246h0C37.477,28.889,37.726,29,38,29s0.523-0.111,0.704-0.29h0l7.519-7.448h0C47.32,20.175,48,18.667,48,17z"/><path fill="#F0F0F0" d="M40,50H24v-5c0-1.657,1.343-3,3-3h10c1.657,0,3,1.343,3,3V50z"/><path fill="#D2AA82" d="M32,44L32,44c-1.105,0-2-0.895-2-2v-3h4v3C34,43.105,33.105,44,32,44z"/><path fill="#F0C8A0" d="M33,40h-2c-1.657,0-3-1.343-3-3v-3c0-1.105,0.895-2,2-2h4c1.105,0,2,0.895,2,2v3 C36,38.657,34.657,40,33,40z"/><path fill="#0A5078" d="M34,32h-4c-1.105,0-2,0.895-2,2v0v-2c0-1.105,0.895-2,2-2h4c1.105,0,2,0.895,2,2v2v0 C36,32.895,35.105,32,34,32z"/><path fill="#0A5078" d="M54,60H10c-1.105,0-2-0.895-2-2v-6c0-1.105,0.895-2,2-2h44c1.105,0,2,0.895,2,2v6 C56,59.105,55.105,60,54,60z"/><path fill="#D2AA82" d="M44,52L44,52c-1.105,0-2-0.895-2-2v-3h4v3C46,51.105,45.105,52,44,52z"/><path fill="#0A5078" d="M46,38h-4c-2.209,0-4,1.791-4,4v5c0,0.552,0.448,1,1,1h10c0.552,0,1-0.448,1-1v-5 C50,39.791,48.209,38,46,38z"/><path fill="#C80A50" d="M52,60H36v-6c0-2.209,1.791-4,4-4h8c2.209,0,4,1.791,4,4V60z"/><g><path fill="#D2AA82" d="M20,52L20,52c-1.105,0-2-0.895-2-2v-3h4v3C22,51.105,21.105,52,20,52z"/><path fill="#0A5078" d="M22,38h-4c-1.105,0-2,0.895-2,2v5c0,1.657,1.343,3,3,3h2c1.657,0,3-1.343,3-3v-5 C24,38.895,23.105,38,22,38z"/><path fill="#FAB400" d="M28,60H12v-7c0-1.657,1.343-3,3-3h10c1.657,0,3,1.343,3,3V60z"/></g><g><path fill="#C80A50" d="M36,16c0-3.314-2.686-6-6-6c-1.537,0-2.938,0.578-4,1.528C24.938,10.578,23.537,10,22,10 c-3.314,0-6,2.686-6,6c0,1.667,0.68,3.175,1.778,4.263h0l7.519,7.448h0C25.477,27.889,25.726,28,26,28s0.523-0.111,0.704-0.29h0 l7.519-7.448h0C35.32,19.175,36,17.667,36,16z"/></g><g><path fill="#A00028" d="M31.5,10.197C28.914,10.864,27,13.205,27,16c0,1.667,0.68,3.175,1.778,4.263h0l2.722,2.697l2.722-2.697h0 C35.32,19.175,36,17.667,36,16C36,13.205,34.086,10.864,31.5,10.197z"/></g><g><path fill="#F0F0F0" d="M48,16c0-3.314-2.686-6-6-6c-1.537,0-2.938,0.578-4,1.528C36.938,10.578,35.537,10,34,10 c-3.314,0-6,2.686-6,6c0,1.667,0.68,3.175,1.778,4.263h0l7.519,7.448h0C37.477,27.889,37.726,28,38,28s0.523-0.111,0.704-0.29h0 l7.519-7.448h0C47.32,19.175,48,17.667,48,16z"/></g></svg>