<svg xmlns="http://www.w3.org/2000/svg"  viewBox="0 0 256 256" width="64px" height="64px"><path fill="#FF4A73" d="M211.848,98.792L211.848,98.792c-13.177,0-26.046,3.983-36.92,11.427l-5.984,4.097l-4.019,2.934 l-4.019-2.934l-5.985-4.097c-10.873-7.444-23.742-11.427-36.919-11.427h0c-20.695,0-37.471,16.776-37.471,37.471v33.985 c0,12.151,5.892,23.548,15.807,30.574l66.291,46.973c0.671,0.476,1.474,0.731,2.296,0.731l0,0c0.823,0,1.625-0.255,2.296-0.731 l66.291-46.973c9.915-7.025,15.807-18.422,15.807-30.574v-33.985C249.319,115.568,232.542,98.792,211.848,98.792z"/><path fill="#FFE2E2" d="M196.739,181.463c-1.809,0.737-3.849-0.041-4.783-1.756c-5.255-9.643-15.324-15.708-26.51-15.708 c-11.187,0-21.257,6.065-26.511,15.708c-0.934,1.715-2.974,2.493-4.783,1.756l-21.252-8.657 c-2.051-0.836-2.946-3.233-1.977-5.225c10.132-20.81,31.109-34.042,54.523-34.042c23.413,0,44.39,13.232,54.522,34.042 c0.97,1.991,0.075,4.389-1.977,5.225L196.739,181.463z"/><circle cx="165.445" cy="189.57" r="5.902" fill="#44C7B6"/><path fill="#44C7B6" d="M213.609,76.396c0,0-32.587-16.511-48.164,9.021C165.445,85.417,187.755,104.989,213.609,76.396z"/><path fill="#F973A3" d="M170.636,245.379l-3.411,2.414c-0.678,0.48-1.477,0.731-2.3,0.731s-1.622-0.251-2.3-0.731l-66.288-46.969 c-9.915-7.029-15.809-18.428-15.809-30.574v-33.985c0-10.349,4.196-19.715,10.973-26.5c6.785-6.777,16.151-10.973,26.5-10.973 c2.178,0,4.348,0.107,6.495,0.327c-8.376,1.097-15.885,4.965-21.573,10.646c-6.777,6.785-10.973,16.151-10.973,26.5v33.985 c0,12.146,5.894,23.545,15.809,30.574L170.636,245.379z"/><path fill="#EA2A6A" d="M249.321,136.265v33.985c0,12.146-5.894,23.545-15.809,30.574l-66.288,46.969 c-0.678,0.48-1.477,0.731-2.3,0.731s-1.622-0.251-2.3-0.731l-3.411-2.414l62.876-44.555c9.915-7.029,15.809-18.428,15.809-30.574 v-33.985c0-19.03-14.179-34.739-32.546-37.146c2.147-0.221,4.318-0.327,6.495-0.327 C232.545,98.792,249.321,115.567,249.321,136.265z"/><path fill="#FFEFEE" d="M124.322,172.809l15.055,6.13c-0.152,0.251-0.297,0.51-0.442,0.769c-0.937,1.713-2.977,2.49-4.782,1.759 l-21.253-8.658c-2.048-0.838-2.947-3.236-1.98-5.224c10.135-20.812,31.114-34.046,54.523-34.046c1.919,0,3.83,0.091,5.711,0.266 c-21.07,1.957-39.506,14.674-48.811,33.78C121.375,169.572,122.274,171.971,124.322,172.809z"/><path fill="#FFCFCF" d="M217.993,172.809l-21.253,8.658c-1.812,0.731-3.853-0.046-4.782-1.759 c-0.145-0.259-0.289-0.518-0.442-0.769l15.055-6.13c2.048-0.838,2.947-3.236,1.972-5.224 c-9.298-19.106-27.734-31.823-48.812-33.78c1.881-0.175,3.792-0.266,5.711-0.266c23.416,0,44.395,13.235,54.523,34.046 C220.94,169.572,220.041,171.971,217.993,172.809z"/><g><circle cx="54.1" cy="31.572" r="24.098" fill="#B76C6C"/><path fill="#C98585" d="M60.207,54.887c-1.946,0.513-3.998,0.782-6.107,0.782c-13.313,0-24.102-10.789-24.102-24.093 c0-13.313,10.789-24.102,24.102-24.102c2.109,0,4.161,0.269,6.107,0.782c-10.357,2.703-17.995,12.116-17.995,23.32 C42.212,42.771,49.85,52.184,60.207,54.887z"/><path fill="#F9D335" d="M101.511,159.211v18.128c0,3.813-3.091,6.904-6.904,6.904H13.598c-3.813,0-6.904-3.091-6.904-6.904 v-18.128c0-10.85,8.796-19.646,19.646-19.646h55.525C92.709,139.565,101.511,148.354,101.511,159.211z"/><path fill="#F9E27D" d="M40.208,139.565c-10.844,0-19.633,8.789-19.633,19.633v25.045c0,0.013,0,0,0,0h-6.977 c-3.813,0-6.904-3.091-6.904-6.904v-18.128c0-10.85,8.796-19.646,19.646-19.646H40.208z"/><path fill="#F2C300" d="M101.511,159.211v18.128c0,3.813-3.091,6.904-6.904,6.904h-6.602v-25.045 c0-10.844-8.802-19.633-19.646-19.633h13.507C92.709,139.565,101.511,148.354,101.511,159.211z"/><path fill="#FFBB98" d="M87.565,64.256v26.406c0,16.182-11.645,29.792-26.974,32.842h-0.013 c-0.336,0.065-0.672,0.129-1.008,0.181c-1.641,0.284-3.322,0.439-5.041,0.465c-2.352,0.039-4.64-0.181-6.863-0.646 c-0.013,0-0.013,0-0.013,0c-15.407-3.102-27.078-17.126-27.078-33.45V64.256c0-9.254,3.748-17.63,9.81-23.691 c6.062-6.062,14.424-9.81,23.678-9.81C72.572,30.755,87.565,45.761,87.565,64.256z"/><path fill="#FFAA80" d="M87.565,66.867v23.795c0,16.182-11.645,29.792-26.974,32.842h-0.013 c-0.336,0.065-0.672,0.129-1.008,0.181c-1.641,0.284-3.322,0.439-5.041,0.465c-2.352,0.039-4.64-0.181-6.863-0.646 c2.262-0.452,4.42-1.137,6.488-2.029c11.981-5.105,20.434-17.022,20.434-30.826V71.688 C78.802,70.654,83.222,69.116,87.565,66.867z"/><path fill="#FFCAA6" d="M59.634,123.504c-0.013,0.039-0.039,0.09-0.065,0.181c-1.641,0.284-3.322,0.439-5.041,0.465 c-2.352,0.039-4.64-0.181-6.863-0.646c-0.013,0-0.013,0-0.013,0c-15.407-3.102-27.078-17.126-27.078-33.45V74.312 c3.735-0.812,5.776-0.729,12.033-2.727v18.47c0,13.946,8.517,26.212,20.602,31.421 C55.253,122.367,57.398,123.052,59.634,123.504z"/><path fill="#B76C6C" d="M87.576,64.257v2.599l-0.008,0.008c-4.344,2.256-8.776,3.794-12.993,4.822 c-12.1,3.013-22.271,1.913-22.271,1.913l5.173-13.83C57,60.08,45.833,67.174,33.565,71.271 c-0.319,0.104-0.638,0.207-0.957,0.311c-4.025,1.291-8.146,2.24-12.036,2.495v-9.82c0-16.34,11.685-29.867,27.029-32.872 c1.188-0.231,2.391-0.399,3.619-0.502c0.941-0.088,1.889-0.128,2.854-0.128c2.184,0,4.368,0.223,6.449,0.63 c6.672,1.299,12.602,4.567,17.217,9.183C83.814,46.617,87.576,55.003,87.576,64.257z"/><path fill="#965959" d="M87.578,64.256v2.598l-0.013,0.013c-4.343,2.249-8.776,3.787-12.99,4.821v-7.432 c0-13.907-8.453-25.824-20.512-30.891c-2.055-0.853-4.226-1.525-6.462-1.978c2.094-0.414,4.265-0.633,6.475-0.633 c2.184,0,4.369,0.22,6.45,0.633c6.669,1.292,12.602,4.563,17.216,9.177C83.817,46.614,87.578,55.002,87.578,64.256z"/><path fill="#C98585" d="M51.221,30.883c-2.662,1.61-5.109,3.547-7.301,5.739c-6.998,6.991-11.311,16.659-11.311,27.316 v7.644c-4.025,1.291-8.146,2.24-12.036,2.495v-9.82c0-16.34,11.685-29.867,27.029-32.872 C48.79,31.154,49.993,30.986,51.221,30.883z"/><path fill="#FFBB98" d="M73.475,142.633c-3.001,8.711-9.115,22.167-19.405,27.607 c-10.447-5.516-16.584-19.301-19.533-27.997c-0.112-0.314,0.052-0.666,0.352-0.741c3.128-0.793,6.369-1.392,9.684-1.789 v-16.981c3.151,0.965,6.496,1.467,9.961,1.422c3.128-0.045,6.159-0.524,9.033-1.377v16.936 c3.188,0.382,6.309,0.943,9.325,1.691c0.09,0.022,0.18,0.067,0.262,0.127c0.112,0.082,0.21,0.202,0.277,0.337 C73.542,142.101,73.557,142.378,73.475,142.633z"/></g><g><path fill="#5F266D" d="M165.445,129.539c-24.95,0-47.22,13.91-58.12,36.29c-1.985,4.074-0.125,8.981,4.07,10.68l21.25,8.66 c3.597,1.477,7.857,0.021,9.8-3.55c3.94-7.22,10.99-12.09,19-13.31c0,0,0,0,0,0v12.21c0,0,0,0,0,0 c-9.738,4.294-6.668,18.95,4,18.95c10.653,0,13.747-14.651,4-18.95v-12.21c8.01,1.22,15.06,6.09,19,13.31 c1.92,3.52,6.13,5.04,9.8,3.55l21.26-8.66c4.146-1.688,6.059-6.576,4.06-10.68C212.665,143.449,190.395,129.539,165.445,129.539z M163.545,189.57c0-2.51,3.8-2.515,3.8,0C167.345,192.084,163.545,192.08,163.545,189.57z M195.405,177.689 c-5.34-9.74-15.05-16.18-25.96-17.45v-4.05c0-2.209-1.791-4-4-4s-4,1.791-4,4v4.05c0,0,0,0,0,0 c-10.91,1.27-20.62,7.71-25.96,17.45l-20.89-8.51c3.67-7.49,8.799-13.879,14.959-18.929l6.522,6.522 c1.561,1.562,4.096,1.562,5.656,0c1.563-1.563,1.563-4.095,0-5.657l-5.536-5.536c8.529-5.119,19.222-7.899,25.249-7.899v6.519 c0,2.209,1.791,4,4,4s4-1.791,4-4v-6.519c9.11,0.62,17.719,3.38,25.249,7.9l-5.536,5.537c-3.739,3.738,1.933,9.385,5.656,5.656 l6.521-6.522c6.16,5.05,11.289,11.44,14.959,18.929L195.405,177.689z"/><path fill="#5F266D" d="M211.845,94.789c-18.68,0-31.052,6.566-42.92,14.69v-17.23c3.77,1.85,9.08,3.66,15.42,3.66 c9.16,0,20.45-3.8,32.23-16.83c0.84-0.92,1.19-2.19,0.97-3.41c-0.23-1.23-1.02-2.28-2.13-2.84c-10.58-5.36-31.87-10.44-46.49,2.26 V63.282c0-2.209-1.791-4-4-4s-4,1.791-4,4v46.197c-11.752-8.044-24.013-14.69-42.92-14.69c-12.53,0-23.77,5.58-31.39,14.39 c3.15-5.47,4.95-11.8,4.95-18.52c0-28.989,0.058-27.364-0.1-29.18c-0.62-8.63-4.16-16.67-10.14-22.97 c0.57-2.22,0.87-4.55,0.87-6.94c0-15.49-12.6-28.1-28.1-28.1c-18.175,0-31.747,17.174-27.23,35 c-0.575,0.621-1.048,1.142-1.72,1.94c0,0-6.2,6.937-7.98,17.21c-0.812,1.643-0.59,11.018-0.59,32.44 c0,15.497,9.644,29.842,24,35.51v9.99h-14.24c-13.04,0-23.65,10.61-23.65,23.7v18.08c0,6.01,4.9,10.9,10.91,10.9 c9.878,0,56.932,0,67.06,0c3,6.25,7.57,11.73,13.37,15.85l66.29,46.97c2.779,1.961,6.441,1.961,9.22,0l66.29-46.97 c10.95-7.77,17.49-20.42,17.49-33.84v-33.99C253.315,113.399,234.715,94.789,211.845,94.789z M206.575,77.83 c-16.1,14.78-29.77,9.91-35.56,6.58C181.435,71.419,198.125,74.899,206.575,77.83z M54.095,11.469 c11.604,0,20.734,9.854,20.07,21.13c-14.178-8.387-29.341-7.052-40.13-0.03C33.36,21.434,42.42,11.469,54.095,11.469z M29.595,47.83c0.898-2.729,13.714-16.66,31.14-12.3c0.05,0,0.11,0.01,0.16,0.04c12.114,2.653,22.67,14.114,22.67,28.79 c-7.818,3.606-16.881,5.295-25.56,5.43l3.22-8.62c0.94-2.507-0.87-5.4-3.75-5.4c-1.694,0-1.67,0.534-7.25,3.63 c-7.618,4.203-17.099,8.523-25.65,10.14C24.575,64.504,23.917,55.721,29.595,47.83z M33.655,111.649 c-10.523-10.376-9.08-21.463-9.08-34.01c8.489-1.317,17.626-5.077,25.31-9c-1.291,3.455-2.25,5.009-0.98,7.06 c0.64,1.05,1.74,1.75,2.97,1.88c7.019,0.777,20.31-0.068,31.69-4.54v17.62c0,18.93-17.943,32.955-35.73,28.8c0,0-0.02,0.01-0.02,0 C42.392,118.182,37.723,115.658,33.655,111.649z M82.195,115.359c-3.49,5.95-5.53,12.85-5.65,20.2h-8.98v-9.94 C73.235,123.409,78.245,119.85,82.195,115.359z M50.077,180.239H13.595c-1.6,0-2.91-1.3-2.91-2.9v-18.13 c0-8.63,7.02-15.65,15.65-15.65h4.42c3.34,9.83,9.34,22.51,19.32,28.96c0.001,0,0.001,0.001,0.002,0.001V180.239z M54.065,165.58 c-6.99-4.74-11.7-14.03-14.44-21.04c1.78-0.35,3.59-0.64,5.42-0.85c2.01-0.24,3.53-1.95,3.53-3.98v-11.96 c3.519,0.536,7.286,0.556,10.99,0v11.96c0,2.03,1.52,3.74,3.53,3.98c1.84,0.22,3.65,0.5,5.42,0.84 C65.825,151.429,61.105,160.799,54.065,165.58z M58.077,180.239v-7.721c9.492-6.171,15.471-17.94,19.178-28.579 c0.042-0.126,0.076-0.21,0.11-0.38c4.852,0,5.489-0.06,7.17,0.23c7.36,1.27,12.97,7.7,12.97,15.42v18.13c0,1.6-1.3,2.9-2.9,2.9 C60.746,180.239,96.535,180.239,58.077,180.239z M245.315,170.249c0,10.83-5.27,21.04-14.12,27.31l-66.25,46.97l-66.29-46.97 c-3.58-2.54-6.57-5.72-8.87-9.32h4.82c6.01,0,10.9-4.89,10.9-10.9v-18.13c0-12.13-9.18-22.16-20.96-23.5 c0.29-18.2,15.18-32.92,33.46-32.92c12.42,0,24.41,3.71,34.66,10.73c13.68,9.366,10.918,9.665,18.59,4.06 c7.256-4.968,19.659-14.79,40.59-14.79c18.46,0,33.47,15.02,33.47,33.47V170.249z"/><path fill="#5F266D" d="M203.385,197.739l-21.35,14.84c-1.82,1.26-2.27,3.75-1.01,5.56c1.284,1.843,3.795,2.244,5.57,1.01 l21.35-14.84c1.82-1.26,2.26-3.76,1-5.57S205.195,196.479,203.385,197.739z"/><path fill="#5F266D" d="M169.715,221.14l-4.41,3.06c-1.81,1.26-2.26,3.75-1,5.57c1.263,1.798,3.736,2.257,5.57,1l4.4-3.06 c1.82-1.26,2.27-3.76,1.01-5.57C174.025,220.32,171.525,219.87,169.715,221.14z"/><path fill="#5F266D" d="M37.581,82.023c-2.479,0-4.488,2.009-4.488,4.488c0,2.479,2.009,4.488,4.488,4.488 c2.478,0,4.488-2.009,4.488-4.488C42.069,84.032,40.06,82.023,37.581,82.023z"/><path fill="#5F266D" d="M70.573,90.998c2.478,0,4.488-2.009,4.488-4.488c0-2.478-2.009-4.488-4.488-4.488 c-2.479,0-4.488,2.009-4.488,4.488C66.085,88.989,68.094,90.998,70.573,90.998z"/><path fill="#5F266D" d="M60.062,94.503c-2.209,0-4,1.791-4,4c0,2.622-3.969,2.623-3.969,0c0-2.209-1.791-4-4-4 c-7.269,0-4.188,13.984,5.984,13.984C64.256,108.487,67.325,94.503,60.062,94.503z"/></g></svg>